<svg width="920" height="1221" viewBox="0 0 920 1221" fill="none" xmlns="http://www.w3.org/2000/svg">
<path d="M971.488 730.674C998.552 640.28 1002.52 552.049 982.964 467.241C964.674 382.85 924.984 308.179 866.418 244.061C807.435 181.204 732.956 135.613 641.3 108.133C515.17 70.6624 399.66 77.2739 292.677 130.073C274.217 139.365 263.754 154.097 260.86 171.328C257.549 189.822 261.378 207.876 272.348 225.49C282.473 241.427 296.36 250.212 313.175 254.368C330.407 257.262 348.044 254.694 367.348 247.081C401.756 231.865 437.864 224.206 477.35 223.26C515.576 221.897 556.763 228.508 601.329 241.832C666.078 261.823 718.675 293.189 759.547 338.87C800.836 383.29 826.605 436.573 838.949 496.614C850.876 557.917 846.845 620.942 826.02 688.214C806.04 757.164 773.424 813.545 732.372 857.345C690.058 900.729 640.987 930.688 583.897 946.805C526.807 962.922 467.148 961.402 404.922 942.244C309.483 913.513 240.848 854.463 197.757 764.678C189.727 746.635 177.507 732.805 161.097 723.186C144.271 714.83 127.883 713.613 111.936 719.537C91.3701 726.734 76.2782 738.538 67.0767 753.686C57.8751 768.834 57.5035 786.899 67.6399 807.037C95.5489 875.018 136.027 930.363 186.979 975.176C237.932 1019.99 297.252 1052.18 367.046 1073.84C457.44 1100.9 541.888 1103.61 623.328 1081.55C705.196 1062.43 776.499 1020.23 837.25 959.148C895.072 902.7 937.735 832.849 965.654 748.334C967.738 742.027 969.405 736.981 971.488 730.674Z" fill="url(#paint0_linear)" fill-opacity="0.05"/>
<defs>
<linearGradient id="paint0_linear" x1="752.876" y1="1165.86" x2="983.693" y2="201.626" gradientUnits="userSpaceOnUse">
<stop stop-color="#02A3FF"/>
<stop offset="1" stop-color="#2A84E9"/>
</linearGradient>
</defs>
</svg>
