<svg width="148" height="238" viewBox="0 0 148 238" fill="none" xmlns="http://www.w3.org/2000/svg">
<path d="M28.459 180.062C59.8602 180.062 91.2613 180.062 122.602 180.062L114.197 237.28H37.7653C34.7032 218.247 31.5811 199.154 28.459 180.062Z" fill="#FFAA1D"/>
<path d="M137.494 153.223H13.3901V180.061H137.494V153.223Z" fill="#FFAA1D"/>
<path d="M137.494 156.586H13.3901V183.424H137.494V156.586Z" fill="#2F80E6"/>
<path d="M37.7651 87.1787C50.4337 91.9819 63.1022 96.7852 75.7708 101.588Z" fill="#2F80E6"/>
<path d="M37.7651 87.1787C50.4337 91.9819 63.1022 96.7852 75.7708 101.588" stroke="black" stroke-width="5" stroke-miterlimit="10"/>
<path d="M75.4111 50.7942V153.223" stroke="black" stroke-width="5" stroke-miterlimit="10"/>
<path d="M103.81 106.812L75.8315 124.404" stroke="black" stroke-width="5" stroke-miterlimit="10"/>
<path d="M20.1136 96.7252C31.222 96.7252 40.2271 87.72 40.2271 76.6116C40.2271 65.5032 31.222 56.498 20.1136 56.498C9.00515 56.498 0 65.5032 0 76.6116C0 87.72 9.00515 96.7252 20.1136 96.7252Z" fill="#2F80E6"/>
<path d="M68.7469 232.417C68.3266 232.357 67.6061 232.237 67.0057 231.696C66.4653 231.156 66.2852 230.496 66.1651 229.175C66.045 228.094 65.9249 226.653 66.045 224.852C65.0243 224.852 63.9436 224.852 62.9229 224.852C61.3018 224.792 59.9809 223.531 59.8008 221.97C59.6207 220.289 60.8816 218.608 62.6227 218.427C63.7635 218.427 64.9643 218.427 66.1051 218.427C66.2252 209.481 66.3452 200.535 66.5254 191.529C66.5254 191.349 66.5854 190.268 67.426 189.368C67.9663 188.828 68.6868 188.467 69.5274 188.467C69.5274 188.467 74.5708 188.587 84.5375 188.767C85.6182 188.948 87.6596 189.368 89.761 190.989C91.8624 192.61 92.8231 194.471 93.2434 195.312C94.3841 197.653 94.5042 199.635 94.5643 201.076C94.6843 202.817 94.8044 205.399 93.4835 208.221C92.2227 210.862 90.3614 212.303 89.5809 212.844C87.1793 214.645 84.8377 215.125 83.6369 215.305C76.7923 215.245 69.8876 215.185 63.043 215.125C61.2418 215.125 59.8008 213.564 59.9209 211.883C59.9809 210.442 61.1818 209.181 62.7428 209.061C68.0864 209.121 73.43 209.121 78.7736 209.181C80.1545 209.181 81.5355 209.181 82.9764 209.241C83.5168 209.181 85.6783 208.941 87.1793 207.14C88.6202 205.399 88.6203 203.417 88.6203 202.157C88.6203 201.076 88.5602 197.834 86.2186 196.032C85.1979 195.252 84.1172 195.012 83.4568 194.952C81.8357 194.952 80.2146 194.952 78.5935 194.892C76.6121 194.892 74.6308 194.832 72.6495 194.832C72.5294 206.78 72.4694 218.728 72.3493 230.676C72.2292 230.976 71.8089 231.636 70.9683 232.117C69.8876 232.537 68.987 232.477 68.7469 232.417Z" fill="white"/>
<path d="M84.9566 224.671L77.0913 224.611C75.4102 224.611 74.0292 223.23 74.0893 221.549C74.0893 219.868 75.4702 218.487 77.1514 218.547L85.0167 218.607C86.6978 218.607 88.0787 219.988 88.0187 221.669C87.9586 223.29 86.6377 224.671 84.9566 224.671Z" fill="white"/>
<path d="M46.1709 122.663C46.2309 126.205 46.6512 130.528 47.852 135.391C49.8334 143.256 53.0756 149.261 55.7173 153.223C61.9615 153.223 68.1457 153.223 74.3899 153.223C65.0236 143.076 55.5973 132.869 46.1709 122.663Z" fill="#2F80E6"/>
<path d="M46.1709 122.663C47.6119 125.725 49.4731 129.087 51.8147 132.449C59.1396 142.956 67.9656 149.441 74.3899 153.223C80.1538 153.223 85.9177 153.223 91.6215 153.223C90.9611 151.422 90.1806 149.561 89.2199 147.699C81.2345 132.569 62.682 125.785 62.682 125.785C59.0796 124.524 53.4958 122.903 46.1709 122.663Z" fill="#A5CDFF"/>
<path d="M33.4424 0C33.5625 3.66247 33.9827 7.98539 35.1235 12.7286C37.5251 22.8154 41.9681 30.3805 45.4505 35.1837C47.4919 37.8255 53.0156 44.1898 62.4419 47.0117C67.4853 48.5127 71.9283 48.4527 74.8703 48.1525C61.001 32.0616 47.2517 16.0308 33.4424 0Z" fill="#2F80E6"/>
<path d="M33.4424 0C34.8834 3.06206 36.7446 6.42433 39.0862 9.7866C46.4111 20.2937 55.2371 26.7781 61.6614 30.5606C67.4253 30.5606 73.1892 30.5606 78.893 30.5606C78.2326 28.7594 77.452 26.8981 76.4914 25.0369C68.506 9.90668 49.9535 3.12211 49.9535 3.12211C46.3511 1.86126 40.7073 0.240162 33.4424 0Z" fill="#A5CDFF"/>
<path d="M16.1509 119.841C16.8714 117.019 18.2523 112.696 21.3744 108.253C22.8754 106.092 27.2584 99.9075 35.604 96.245C46.1111 91.6819 55.8376 94.2637 58.6595 95.1042C58.5995 96.6653 58.2993 99.1269 57.2186 101.829C53.9163 110.234 45.7508 114.137 40.5874 116.659C38.3058 117.739 34.7034 119.481 29.5999 120.261C23.8961 121.102 19.1529 120.441 16.1509 119.841Z" fill="#2F80E6"/>
<path d="M29.6004 44.7302C32.3623 45.6909 36.5051 47.5521 40.6478 51.0945C42.6292 52.7757 48.3931 57.759 51.1549 66.4649C54.6373 77.3922 51.0949 86.7586 49.9541 89.4604C48.3931 89.2202 45.9915 88.6799 43.4097 87.359C35.3643 83.2162 32.3022 74.6904 30.3809 69.3468C29.5404 66.9452 28.2195 63.2227 27.9193 58.0592C27.499 52.2953 28.6398 47.6122 29.6004 44.7302Z" fill="#A5CDFF"/>
<path d="M112.516 28.8794C112.516 31.7613 112.096 36.3244 110.115 41.3678C109.154 43.8295 106.332 50.8542 99.0674 56.3179C89.8812 63.2225 79.8544 62.9223 76.9125 62.7422C76.6123 61.1812 76.3121 58.7796 76.7323 55.8976C77.9932 46.9516 85.0179 41.2477 89.4609 37.6453C91.4423 36.0242 94.5644 33.5626 99.3676 31.5812C104.711 29.3597 109.454 28.9394 112.516 28.8794Z" fill="#2F80E6"/>
<path d="M135.992 136.052C133.29 137.072 128.907 138.273 123.443 138.273C120.801 138.273 113.236 138.093 105.551 133.29C95.8244 127.166 92.5822 117.679 91.6816 114.858C93.0025 114.017 95.224 112.876 98.0459 112.276C106.872 110.294 114.677 114.858 119.661 117.679C121.882 118.94 125.304 120.982 128.847 124.764C132.749 128.967 134.851 133.23 135.992 136.052Z" fill="#2F80E6"/>
<path d="M122.903 48.2727C119.841 50.3141 116.418 53.0159 113.056 56.4982C105.791 63.9433 101.829 71.7485 99.6071 77.2122C98.4663 80.3343 96.0046 88.4398 98.7665 97.9262C100.207 102.97 102.609 106.692 104.47 109.034C110.594 88.8 116.779 68.5063 122.903 48.2727Z" fill="#2F80E6"/>
<path d="M122.903 48.2727C121.102 51.3948 119.361 54.7571 117.68 58.2995C108.974 76.7319 105.551 94.4438 104.471 109.034C107.833 109.094 115.938 108.793 121.462 103.09C122.783 101.709 123.744 100.268 124.824 98.1063C132.99 81.7152 129.087 63.9433 129.087 63.9433C128.247 60.1607 126.626 54.577 122.903 48.2727Z" fill="#A5CDFF"/>
<path d="M125.784 114.497C136.893 114.497 145.898 105.492 145.898 94.3836C145.898 83.2752 136.893 74.27 125.784 74.27C114.676 74.27 105.671 83.2752 105.671 94.3836C105.671 105.492 114.676 114.497 125.784 114.497Z" fill="#2F80E6"/>
<path d="M127.886 114.497C138.994 114.497 148 105.492 148 94.3836C148 83.2752 138.994 74.27 127.886 74.27C116.778 74.27 107.772 83.2752 107.772 94.3836C107.772 105.492 116.778 114.497 127.886 114.497Z" fill="#FFAA1D"/>
<path d="M112.816 96.9653C112.696 96.6651 112.636 96.2448 112.816 95.7645C112.996 95.3442 113.357 95.044 114.077 94.6237C114.678 94.2635 115.518 93.8432 116.599 93.4229C116.359 92.8225 116.059 92.1621 115.818 91.5617C115.398 90.601 115.818 89.4603 116.719 88.9799C117.68 88.4396 119 88.7398 119.541 89.7605C119.841 90.4809 120.141 91.1414 120.441 91.8619C125.785 89.6404 131.129 87.3588 136.472 85.1373C136.592 85.0773 137.253 84.8371 137.973 85.0773C138.454 85.2574 138.814 85.6177 139.054 86.098C139.054 86.098 140.315 89.1 142.777 95.1041C142.957 95.7645 143.257 97.1454 142.837 98.7665C142.416 100.448 141.576 101.468 141.155 101.949C140.075 103.21 138.874 103.81 138.093 104.23C137.073 104.771 135.572 105.491 133.53 105.431C131.669 105.371 130.288 104.65 129.808 104.35C128.127 103.39 127.226 102.129 126.806 101.468C125.065 97.3856 123.323 93.3028 121.582 89.2201C121.102 88.1394 121.702 86.8785 122.723 86.5183C123.624 86.2181 124.644 86.5783 125.125 87.4789C126.506 90.6611 127.826 93.8432 129.207 97.0253C129.568 97.8659 129.928 98.7065 130.288 99.5471C130.468 99.8473 131.189 101.048 132.63 101.468C134.011 101.889 135.211 101.348 135.992 101.048C136.652 100.748 138.514 99.9073 138.994 98.046C139.174 97.2655 139.054 96.545 138.934 96.1247C138.514 95.1641 138.093 94.2035 137.673 93.2428C137.193 92.042 136.652 90.9012 136.172 89.7004C129.027 92.7625 121.942 95.7645 114.798 98.8266C114.618 98.8266 114.077 98.7665 113.597 98.3462C113.056 97.6858 112.876 97.1454 112.816 96.9653Z" fill="white"/>
<path d="M121.643 104.591L119.661 99.9078C119.241 98.8871 119.721 97.7463 120.682 97.326C121.703 96.9057 122.843 97.3861 123.264 98.3467L125.245 103.03C125.665 104.051 125.185 105.191 124.224 105.612C123.204 106.032 122.063 105.612 121.643 104.591Z" fill="white"/>
<path d="M22.8157 96.7252C33.9241 96.7252 42.9293 87.72 42.9293 76.6116C42.9293 65.5032 33.9241 56.498 22.8157 56.498C11.7073 56.498 2.70215 65.5032 2.70215 76.6116C2.70215 87.72 11.7073 96.7252 22.8157 96.7252Z" fill="#FFAA1D"/>
<path d="M29.6603 90.7213C29.4202 90.9014 29.0599 91.2016 28.5196 91.2016C28.0392 91.2016 27.679 90.9615 26.9585 90.4211C26.4182 90.0008 25.6977 89.3404 24.9171 88.4998C24.4368 88.9801 23.9565 89.4605 23.4762 89.9408C22.6956 90.6613 21.4948 90.7213 20.7143 90.0609C19.8737 89.3404 19.6936 88.0195 20.3541 87.1189C20.8944 86.5785 21.4348 86.0381 21.9752 85.5578C17.9525 81.415 13.8697 77.2122 9.84699 73.0694C9.72691 72.9493 9.24658 72.469 9.24658 71.6885C9.24658 71.2082 9.4267 70.6678 9.78695 70.3075C9.78695 70.3075 12.1285 68.026 16.8117 63.583C17.352 63.1627 18.5529 62.4422 20.234 62.2021C21.9151 61.9619 23.236 62.3822 23.7764 62.6224C25.3374 63.1627 26.3581 64.0633 27.0186 64.6637C27.8591 65.4443 29.12 66.525 29.7804 68.4463C30.3808 70.2475 30.2007 71.7485 30.1407 72.3489C29.8405 74.2702 28.9999 75.5911 28.5196 76.1915C25.3374 79.3136 22.1553 82.4357 19.0332 85.5578C18.1926 86.3984 16.8117 86.2783 16.0912 85.4978C15.4908 84.7773 15.4308 83.6966 16.0912 82.916C18.5529 80.5144 21.0145 78.0528 23.4762 75.6511C24.1366 74.9907 24.737 74.3903 25.3975 73.7299C25.6376 73.4296 26.4782 72.3489 26.3581 70.8479C26.238 69.4069 25.3374 68.4463 24.737 67.9059C24.2567 67.4256 22.7557 65.9246 20.8344 66.2248C19.9938 66.3449 19.3934 66.7051 19.0332 67.0053C18.2527 67.7258 17.5322 68.5063 16.7516 69.2268C15.851 70.1274 14.9504 71.028 13.9898 71.9286C19.3934 77.4524 24.8571 82.9761 30.2607 88.4998C30.3208 88.6799 30.4409 89.2203 30.2607 89.8207C30.2607 90.241 29.7804 90.6012 29.6603 90.7213Z" fill="white"/>
<path d="M33.5039 79.734L29.9015 83.2764C29.1209 84.0569 27.8601 84.0569 27.1396 83.2764C26.3591 82.4958 26.3591 81.235 27.1396 80.5145L30.742 76.9721C31.5225 76.1916 32.7834 76.1916 33.5039 76.9721C34.2844 77.6926 34.2844 78.9535 33.5039 79.734Z" fill="white"/>
<path d="M74.3904 51.6954C85.4988 51.6954 94.504 42.6902 94.504 31.5818C94.504 20.4734 85.4988 11.4683 74.3904 11.4683C63.282 11.4683 54.2769 20.4734 54.2769 31.5818C54.2769 42.6902 63.282 51.6954 74.3904 51.6954Z" fill="#2F80E6"/>
<path d="M78.3533 51.6946C89.4617 51.6946 98.4669 42.6895 98.4669 31.5811C98.4669 20.4727 89.4617 11.4675 78.3533 11.4675C67.2449 11.4675 58.2397 20.4727 58.2397 31.5811C58.2397 42.6895 67.2449 51.6946 78.3533 51.6946Z" fill="#FFAA1D"/>
<path d="M72.9499 45.8109C72.6497 45.8109 72.1693 45.6909 71.8091 45.3306C71.4488 44.9704 71.3288 44.5501 71.2687 43.7095C71.2087 42.989 71.1486 42.0884 71.1486 40.9477C70.4882 40.9477 69.7677 40.9477 69.1073 40.9477C68.0265 40.9477 67.186 40.1071 67.0659 39.0864C66.9458 38.0057 67.7263 36.925 68.8671 36.8049C69.6476 36.8049 70.3681 36.8049 71.1486 36.8049C71.2087 30.9809 71.2687 25.2171 71.3888 19.3931C71.3888 19.2731 71.3888 18.5526 71.9892 18.0122C72.3494 17.652 72.8298 17.4118 73.3701 17.4718C73.3701 17.4718 76.6123 17.5319 83.0967 17.652C83.7571 17.772 85.1381 18.0722 86.459 19.0929C87.8399 20.1136 88.4403 21.3745 88.6805 21.9148C89.4009 23.4158 89.521 24.7367 89.5811 25.6373C89.6411 26.7781 89.7612 28.4592 88.8606 30.2605C88.0801 31.9416 86.8192 32.9022 86.3389 33.2625C84.7778 34.4033 83.2768 34.7635 82.4963 34.8836C78.0533 34.8836 73.6103 34.8235 69.1673 34.8235C67.9665 34.8235 67.0659 33.8028 67.1259 32.7221C67.186 31.8215 67.9665 30.9809 68.9271 30.8609C72.4095 30.8609 75.8318 30.9209 79.3141 30.9209C80.2148 30.9209 81.1154 30.9209 82.016 30.9209C82.3762 30.8609 83.7571 30.7408 84.7178 29.54C85.6784 28.3992 85.6784 27.1384 85.6184 26.2978C85.6184 25.5773 85.6184 23.5359 84.0573 22.3351C83.3969 21.8548 82.6764 21.6747 82.2561 21.6146C81.1754 21.6146 80.1547 21.6146 79.074 21.6146C77.8131 21.6146 76.4922 21.6146 75.2314 21.6146C75.1714 29.3599 75.1113 37.1051 75.1113 44.8503C74.9912 45.0304 74.7511 45.4507 74.2107 45.7509C73.6703 45.931 73.13 45.8109 72.9499 45.8109Z" fill="white"/>
<path d="M83.3963 40.7673L78.2929 40.7073C77.2121 40.7073 76.3115 39.8067 76.3115 38.726C76.3115 37.6452 77.2121 36.7446 78.2929 36.7446L83.3963 36.8047C84.477 36.8047 85.3776 37.7053 85.3776 38.786C85.3776 39.8667 84.477 40.7673 83.3963 40.7673Z" fill="white"/>
</svg>
